<svg id="Layer_1" data-name="Layer 1" xmlns="http://www.w3.org/2000/svg" viewBox="0 0 351.12 167.3"><defs><style>.cls-1{fill:#cfcec5;stroke:#fefaf2;stroke-miterlimit:10;stroke-width:4px;}.cls-2{fill:#fefaf2;}</style></defs><title>header</title><polygon class="cls-1" points="2.42 123.33 25.41 2 70.42 2 95.08 123.33 62.41 123.33 60.41 119 36.08 119 34.75 123.33 2.42 123.33"/><polygon class="cls-1" points="48.75 28.67 58.41 93.67 39.41 93.67 48.75 28.67"/><polygon class="cls-1" points="106.08 123.33 106.08 2 139.75 2 169.75 99 169.75 2 199.75 2 199.75 123.33 156.41 123.33 135.75 61.17 135.75 123.33 106.08 123.33"/><polygon class="cls-1" points="238.75 123.33 238.75 28.67 210.75 28.67 210.75 2 301.75 2 301.75 28.67 273.75 28.67 273.75 123.33 238.75 123.33"/><rect class="cls-1" x="315.41" y="2" width="33.67" height="121.33"/><path class="cls-2" d="M3.88,136.64s8.49,0.27,8.49,6.52v9.64s-1,4.71-4.25,4.55v2L12,168.64H5.64l-1.75-2.52V153.19s1.7-.33,1.7-3.29v-3.78s0.05-2.68-1.7-2.68v-6.79Z" transform="translate(-0.59 -1.33)"/><rect class="cls-2" x="14.53" y="135.31" width="5.48" height="32"/><polygon class="cls-2" points="21.71 167.3 21.71 135.31 26.47 135.31 26.47 152.24 33.87 152.24 33.87 135.31 41.92 135.31 41.92 167.3 33.98 167.3 33.98 158.21 26.47 158.21 26.47 167.3 21.71 167.3"/><polygon class="cls-2" points="44.61 135.31 50.53 135.31 56.5 167.3 49.7 167.3 49.16 165.6 44.61 165.6 44.61 160.02 48.44 160.02 44.61 140.89 44.61 135.31"/><polygon class="cls-2" points="107.09 135.31 113.01 135.31 118.98 167.3 112.19 167.3 111.64 165.6 107.09 165.6 107.09 160.02 110.93 160.02 107.09 140.89 107.09 135.31"/><polygon class="cls-2" points="58.31 167.3 58.31 135.31 64.28 135.31 72.77 161 72.77 135.31 79.89 135.31 79.89 167.3 69.59 167.3 63.57 148.29 63.57 167.3 58.31 167.3"/><polygon class="cls-2" points="82.85 167.3 82.85 135.31 88.82 135.31 97.32 161 97.32 135.31 104.44 135.31 104.44 167.3 94.14 167.3 88.11 148.29 88.11 167.3 82.85 167.3"/><path class="cls-2" d="M178.54,167.17l-5.8-30.42h3.57l2.54,14.67c0.63,3.84,1.12,7.22,1.47,11h0.18c0.36-3.84,1.07-7.13,1.79-11l2.77-14.62H188l2.77,14.31c0.67,3.61,1.34,7.09,1.74,11.33h0.13c0.49-4.38,1-7.67,1.61-11.15l2.5-14.49h3.35l-5.85,30.42h-3.35l-2.9-14.8c-0.58-3.2-1.16-6.63-1.52-10H186.4c-0.45,3.43-.94,6.73-1.65,10.11l-3,14.67h-3.21Z" transform="translate(-0.59 -1.33)"/><path class="cls-2" d="M219.21,151.74c0,11.42-3.88,15.8-8.71,15.8-5,0-8.35-5.37-8.35-15.62,0-10.06,3.57-15.53,8.84-15.53S219.21,142,219.21,151.74Zm-13.48.23c0,6.27,1.21,12.5,5,12.5s4.91-6.64,4.91-12.59c0-5.69-1-12.41-5-12.41C206.94,139.46,205.73,145.78,205.73,152Z" transform="translate(-0.59 -1.33)"/><path class="cls-2" d="M223.32,137.2a19.39,19.39,0,0,1,5-.59c3,0,5.22.63,6.79,2.17a8.24,8.24,0,0,1,2.1,6,7.94,7.94,0,0,1-4.82,7.81v0.09c2.23,0.68,3.39,2.84,4.06,6.82a43.42,43.42,0,0,0,1.7,7.72h-3.48a39.74,39.74,0,0,1-1.61-7.54c-0.67-4.15-2-5.73-4.91-5.73h-1.34v13.27h-3.44v-30Zm3.44,14h1.43c3.3,0,5.49-2.44,5.49-6.09s-1.43-5.69-5.13-5.73a6.8,6.8,0,0,0-1.79.18v11.65Z" transform="translate(-0.59 -1.33)"/><path class="cls-2" d="M241.58,136.75H245v27.49h8.48v2.93H241.58V136.75Z" transform="translate(-0.59 -1.33)"/><path class="cls-2" d="M256.93,137.2a16.14,16.14,0,0,1,4.64-.59c3.17,0,5.4.81,7.05,2.3,2.32,2,4.06,6,4.06,12.32,0,7-1.7,10.74-3.62,12.82-2,2.26-4.82,3.29-8.3,3.29a19.44,19.44,0,0,1-3.84-.32V137.2Zm3.44,27.13a7.16,7.16,0,0,0,1.29.09c3.79,0,7.46-2.75,7.46-13.09,0-7.67-2.32-11.87-7.14-11.87a6.07,6.07,0,0,0-1.61.18v24.69Z" transform="translate(-0.59 -1.33)"/><path class="cls-2" d="M285.77,139.87h-5.49v-3.11H294.7v3.11h-5.49v27.31h-3.44V139.87Z" transform="translate(-0.59 -1.33)"/><path class="cls-2" d="M312.42,151.74c0,11.42-3.88,15.8-8.71,15.8-5,0-8.35-5.37-8.35-15.62,0-10.06,3.57-15.53,8.84-15.53S312.42,142,312.42,151.74Zm-13.48.23c0,6.27,1.21,12.5,5,12.5s4.91-6.64,4.91-12.59c0-5.69-1-12.41-5-12.41C300.15,139.46,298.94,145.78,298.94,152Z" transform="translate(-0.59 -1.33)"/><path class="cls-2" d="M319.92,136.75v20.4c0,5.46,1.79,7.31,4.11,7.31,2.54,0,4.15-2,4.15-7.31v-20.4h3.44v19.86c0,7.9-3.21,10.92-7.68,10.92s-7.46-3-7.46-10.52V136.75h3.44Z" transform="translate(-0.59 -1.33)"/><path class="cls-2" d="M336.93,137.2a19.39,19.39,0,0,1,5-.59c3,0,5.22.63,6.79,2.17a8.24,8.24,0,0,1,2.1,6,7.94,7.94,0,0,1-4.82,7.81v0.09c2.23,0.68,3.39,2.84,4.06,6.82a43.32,43.32,0,0,0,1.7,7.72h-3.48a39.74,39.74,0,0,1-1.61-7.54c-0.67-4.15-2-5.73-4.91-5.73h-1.34v13.27h-3.44v-30Zm3.44,14h1.43c3.3,0,5.49-2.44,5.49-6.09s-1.43-5.69-5.13-5.73a6.8,6.8,0,0,0-1.79.18v11.65Z" transform="translate(-0.59 -1.33)"/></svg>